<svg xmlns="http://www.w3.org/2000/svg" version="1.1" xmlns:xlink="http://www.w3.org/1999/xlink" xmlns:svgjs="http://svgjs.dev/svgjs" width="1000" height="1000" viewBox="0 0 1000 1000"><rect width="1000" height="1000" fill="#6936f5"></rect><g transform="matrix(0.7,0,0,0.7,150.11896067415722,413.2837732954545)"><svg viewBox="0 0 356 88" data-background-color="#6936f5" preserveAspectRatio="xMidYMid meet" height="247" width="1000" xmlns="http://www.w3.org/2000/svg" xmlns:xlink="http://www.w3.org/1999/xlink"><g id="tight-bounds" transform="matrix(1,0,0,1,-0.06049999999996203,0.1355000000000075)"><svg viewBox="0 0 356.12052 87.72858138826516" height="87.72858138826516" width="356.12052"><g><svg viewBox="0 0 356.12052 87.72858138826516" height="87.72858138826516" width="356.12052"><g><svg viewBox="0 0 356.12052 87.72858138826516" height="87.72858138826516" width="356.12052"><g><path d="M0 87.729v-87.729h356.121v87.729z" fill="#ffffff" stroke="transparent" stroke-width="0" rx="0%" data-fill-palette-color="tertiary"></path><path d="M3.283 84.445v-81.162h349.554v81.162z" fill="#6936f5" stroke="transparent" stroke-width="0" rx="0%" data-fill-palette-color="quaternary"></path><path d="M9.85 77.879v-68.029h336.421v68.029z" fill="#ffffff" stroke="transparent" stroke-width="0" data-fill-palette-color="tertiary"></path></g><g transform="matrix(1,0,0,1,19.69974,19.69974)"><svg viewBox="0 0 316.72104 48.32910138826516" height="48.32910138826516" width="316.72104"><g><svg viewBox="0 0 316.72104 48.32910138826516" height="48.32910138826516" width="316.72104"><g transform="matrix(1,0,0,1,0,0)"><svg width="316.72104" viewBox="5.420000076293945 -38.15999984741211 250.05999755859375 38.15999984741211" height="48.32910138826516" data-palette-color="#6936f5"><path d="M5.42 0L5.42-38.16 24.83-38.16Q29.22-38.16 32.45-37.24 35.67-36.33 37.79-34.59 39.92-32.86 40.95-30.37 41.99-27.88 41.99-24.73L41.99-24.73Q41.99-22.61 41.48-20.69 40.97-18.77 39.9-17.16 38.84-15.55 37.23-14.29 35.62-13.04 33.45-12.21L33.45-12.21 41.75 0 32.28 0 25.1-10.84 24.88-10.84 13.16-10.86 13.16 0 5.42 0ZM13.16-17.55L25.02-17.55Q27.22-17.55 28.87-18.07 30.52-18.58 31.63-19.51 32.74-20.43 33.29-21.77 33.84-23.1 33.84-24.73L33.84-24.73Q33.84-27.93 31.64-29.68 29.44-31.42 25.02-31.42L25.02-31.42 13.16-31.42 13.16-17.55ZM46.24 0L64.16-38.16 72.36-38.16 90.82 0 82.69 0 79.64-6.42 57.35-6.42 54.39 0 46.24 0ZM60.3-12.79L76.58-12.79 68.33-30.13 60.3-12.79ZM96.75 0L96.75-38.16 130.88-38.16 130.88-31.37 104.49-31.37 104.49-21.39 126.9-21.39 126.9-15.01 104.49-15.01 104.49 0 96.75 0ZM133.44 0L151.36-38.16 159.56-38.16 178.02 0 169.89 0 166.84-6.42 144.55-6.42 141.59 0 133.44 0ZM147.5-12.79L163.79-12.79 155.53-30.13 147.5-12.79ZM183.95 0L183.95-38.16 216.45-38.16 216.45-31.37 191.69-31.37 191.69-23.75 213.61-23.75 213.61-17.38 191.69-17.38 191.69-6.76 216.96-6.76 216.96 0 183.95 0ZM225.55 0L225.55-38.16 233.29-38.16 233.29-6.79 255.48-6.79 255.48 0 225.55 0Z" opacity="1" transform="matrix(1,0,0,1,0,0)" fill="#6936f5" class="undefined-text-0" data-fill-palette-color="quaternary" id="text-0"></path></svg></g></svg></g></svg></g></svg></g><g></g></svg></g><defs></defs></svg><rect width="356.12052" height="87.72858138826516" fill="none" stroke="none" visibility="hidden"></rect></g></svg></g></svg>